<?xml version="1.0" standalone="no"?>
<!DOCTYPE svg PUBLIC "-//W3C//DTD SVG 20010904//EN"
 "http://www.w3.org/TR/2001/REC-SVG-20010904/DTD/svg10.dtd">
<svg version="1.0" xmlns="http://www.w3.org/2000/svg"
 width="232.000000pt" height="180.000000pt" viewBox="0 0 232.000000 180.000000"
 preserveAspectRatio="xMidYMid meet">
<g transform="translate(0.000000,180.000000) scale(0.100000,-0.100000)"
fill="#000000" stroke="none">
<path d="M1625 1438 c-112 -64 -375 -408 -556 -726 -77 -137 -80 -132 -49 106
27 208 32 424 10 467 -9 18 -25 31 -38 33 -51 8 -149 -141 -217 -328 -29 -82
-66 -252 -64 -303 1 -18 7 9 15 58 21 136 59 258 118 380 58 119 114 188 149
183 11 -2 22 -8 24 -14 2 -7 -5 -10 -20 -7 -31 6 -79 -51 -131 -154 -50 -100
-45 -106 7 -8 81 153 129 193 142 117 3 -20 -2 -125 -12 -232 -17 -195 -20
-407 -5 -422 4 -4 39 47 77 115 116 206 317 493 434 620 94 101 164 141 188
105 4 -7 11 -65 14 -128 l5 -115 2 105 c1 68 -3 114 -11 130 -14 28 -51 36
-82 18z m-600 -468 c-18 -186 -39 -327 -29 -195 3 39 12 144 20 235 7 91 15
176 16 190 1 14 3 7 5 -15 3 -22 -3 -119 -12 -215z"/>
<path d="M1586 1365 c-105 -86 -325 -387 -495 -677 -91 -155 -107 -162 -114
-48 l-3 65 -2 -66 c-1 -49 2 -70 13 -79 23 -19 43 4 126 143 233 391 478 697
558 697 29 0 23 -97 -30 -444 -17 -109 -28 -200 -26 -202 6 -7 66 373 78 496
16 170 -6 195 -105 115z"/>
<path d="M1657 867 c-20 -122 -40 -235 -43 -252 -4 -16 -4 -28 -1 -25 8 8 52
231 72 368 29 197 11 140 -28 -91z"/>
<path d="M801 978 c-33 -100 -60 -236 -65 -328 l-5 -85 9 75 c13 106 48 270
71 337 10 31 17 58 15 60 -2 2 -13 -24 -25 -59z"/>
<path d="M1597 700 c-5 -25 -32 -152 -62 -283 -33 -144 -53 -250 -50 -270 5
-26 4 -28 -5 -12 -8 16 -9 13 -4 -15 4 -26 3 -31 -5 -20 -9 13 -11 13 -11 -2
0 -43 21 -22 39 39 40 134 63 225 58 229 -2 3 -17 -44 -33 -102 -15 -59 -30
-102 -31 -97 -2 6 5 46 16 89 37 146 102 457 98 473 -1 9 -6 -4 -10 -29z"/>
<path d="M703 570 c0 -47 2 -66 4 -42 2 23 2 61 0 85 -2 23 -4 4 -4 -43z"/>
<path d="M730 461 c4 -20 10 -44 14 -52 4 -8 0 -5 -8 5 -9 11 -17 31 -17 45
-1 19 -3 21 -6 8 -6 -24 15 -74 34 -81 12 -5 14 -1 9 21 -4 16 -10 40 -13 56
-3 15 -9 29 -13 32 -4 2 -4 -13 0 -34z"/>
</g>
</svg>
